<?xml version="1.0" encoding="utf-8"?>
<!-- Generator: Adobe Illustrator 24.3.0, SVG Export Plug-In . SVG Version: 6.00 Build 0)  -->
<svg version="1.1" id="Шар_1" xmlns="http://www.w3.org/2000/svg" xmlns:xlink="http://www.w3.org/1999/xlink" x="0px" y="0px"
	 viewBox="0 0 256 256" style="enable-background:new 0 0 256 256;" xml:space="preserve">
<style type="text/css">
	.st0{fill-rule:evenodd;clip-rule:evenodd;fill:#0070D1;stroke:#000000;stroke-width:2.560000e-03;stroke-miterlimit:42.6667;}
</style>
<g id="SVGRepo_bgCarrier">
</g>
<g id="SVGRepo_tracerCarrier">
</g>
<g id="SVGRepo_iconCarrier">
	<path class="st0" d="M74.7,114.6c0-5.9,4.8-10.7,10.7-10.7h0.1c5.9,0,10.7,4.8,10.7,10.7c0,5.9-4.8,10.7-10.7,10.7h-0.1
		C79.5,125.3,74.7,120.5,74.7,114.6z M117.4,114.6c0-5.9,4.8-10.7,10.7-10.7h0.1c5.9,0,10.7,4.8,10.7,10.7c0,5.9-4.8,10.7-10.7,10.7
		h-0.1C122.2,125.3,117.4,120.5,117.4,114.6z M170.7,104c-5.9,0-10.7,4.8-10.7,10.7c0,5.9,4.8,10.7,10.7,10.7h0.1
		c5.9,0,10.7-4.8,10.7-10.7c0-5.9-4.8-10.7-10.7-10.7H170.7z M74,29.3c0.2,0,0.5,0,0.7,0h107.4c9.5,0,17.6,0,24.1,0.9
		c7,0.9,13.7,3.1,19.1,8.5c5.4,5.4,7.6,12.1,8.5,19.1c0.9,6.5,0.9,14.7,0.9,24.1v65.4c0,9.5,0,17.6-0.9,24.1
		c-0.9,7-3.1,13.7-8.5,19.1c-5.4,5.4-12.1,7.6-19.1,8.5c-6.5,0.9-14.7,0.9-24.1,0.9h-32.7c-1.2,0-2.4,0.4-3.4,1.1l-47,34.2
		c-10.1,7.3-24.3,0.1-24.3-12.4V200c-8.3,0-16.6,0.2-24.8-0.9c-7-0.9-13.7-3.1-19.1-8.5c-5.4-5.4-7.6-12.1-8.5-19.1
		c-0.9-6.5-0.9-14.7-0.9-24.1V82.6c0-0.2,0-0.5,0-0.7c0-9.5,0-17.6,0.9-24.1c0.9-7,3.1-13.7,8.5-19.1c5.4-5.4,12.1-7.6,19.1-8.5
		C56.4,29.3,64.6,29.3,74,29.3z"/>
</g>
</svg>
